Coordinates
version=1
nRows=11
nColumns=26
inDegrees=yes

Units are S.I. units (second, meters, Newtons, ...)
Angles are in degrees.

endheader
time	pelvis_tilt	pelvis_list	pelvis_rotation	pelvis_tx	pelvis_ty	pelvis_tz	hip_flexion_r	hip_adduction_r	hip_rotation_r	knee_angle_r	knee_angle_r_beta	ankle_angle_r	subtalar_angle_r	mtp_angle_r	hip_flexion_l	hip_adduction_l	hip_rotation_l	knee_angle_l	knee_angle_l_beta	ankle_angle_l	subtalar_angle_l	mtp_angle_l	lumbar_extension	lumbar_bending	lumbar_rotation
      0.80000000	      9.10009885	     -3.23556824	      7.14454747	      0.83918174	      1.01003388	      0.13860347	     -2.37727480	      5.95781683	     -8.28606399	     11.14864519	     11.14864519	      3.58360631	      0.00000000	      0.00000000	     11.70831466	    -12.75436230	     -5.04249250	     65.81234843	     65.81234843	      4.79513655	      0.00000000	      0.00000000	    -20.27696489	      5.27433151	      3.96588044
      0.80833333	      8.97520384	     -3.07082142	      7.12100933	      0.84662645	      1.01068696	      0.13892024	     -2.98602056	      5.88935689	     -8.20340186	     10.71539700	     10.71539700	      3.71492129	      0.00000000	      0.00000000	     12.66796683	    -12.53361085	     -5.47104482	     65.10676769	     65.10676769	      4.82381597	      0.00000000	      0.00000000	    -20.19899506	      5.04426756	      3.99532290
      0.81666667	      8.80363109	     -2.88068199	      7.07826732	      0.85399132	      1.01122770	      0.13908872	     -3.49615468	      5.75843529	     -8.13059789	     10.36480898	     10.36480898	      3.88066532	      0.00000000	      0.00000000	     13.64848473	    -12.23217001	     -5.83617989	     64.28107656	     64.28107656	      4.98853814	      0.00000000	      0.00000000	    -20.08487814	      4.79575564	      4.05732497
      0.82500000	      8.63510665	     -2.70629988	      7.01679572	      0.86132512	      1.01168802	      0.13913588	     -3.99262274	      5.62178490	     -7.98946155	     10.05845183	     10.05845183	      4.07423177	      0.00000000	      0.00000000	     14.55395878	    -11.92930125	     -6.30458559	     63.19919870	     63.19919870	      5.16188587	      0.00000000	      0.00000000	    -19.98624329	      4.58089031	      4.13590365
      0.83333333	      8.48677584	     -2.50843118	      6.95808688	      0.86870505	      1.01203015	      0.13907516	     -4.52655126	      5.46835370	     -7.89571374	      9.71750335	      9.71750335	      4.27668719	      0.00000000	      0.00000000	     15.36806090	    -11.59040834	     -6.78846517	     61.95900993	     61.95900993	      5.21828848	      0.00000000	      0.00000000	    -19.90488444	      4.35596138	      4.18987884
      0.84166667	      8.31915939	     -2.35397837	      6.93374048	      0.87602862	      1.01217601	      0.13883206	     -5.03099122	      5.34848070	     -7.79153261	      9.38227066	      9.38227066	      4.48397046	      0.00000000	      0.00000000	     16.24323418	    -11.21688764	     -7.07470334	     60.64690092	     60.64690092	      5.23843689	      0.00000000	      0.00000000	    -19.80169731	      4.20151803	      4.23119743
      0.85000000	      8.17556309	     -2.22761816	      6.86654291	      0.88339506	      1.01225389	      0.13851101	     -5.56080135	      5.24958330	     -7.60078901	      9.04166182	      9.04166182	      4.70903434	      0.00000000	      0.00000000	     17.05390226	    -10.82830740	     -7.35156664	     59.19966277	     59.19966277	      5.13774892	      0.00000000	      0.00000000	    -19.72473005	      4.08736440	      4.32360510
      0.85833333	      8.05122559	     -2.13761680	      6.82356722	      0.89079955	      1.01226089	      0.13822444	     -6.08456205	      5.18948268	     -7.48329500	      8.72888796	      8.72888796	      4.90036876	      0.00000000	      0.00000000	     17.75199090	    -10.48532837	     -7.64540677	     57.55708275	     57.55708275	      5.02828019	      0.00000000	      0.00000000	    -19.66589423	      4.01328396	      4.38743699
      0.86666667	      7.97183155	     -2.06801003	      6.74207443	      0.89828596	      1.01225150	      0.13785504	     -6.67727513	      5.14922335	     -7.36208209	      8.37856215	      8.37856215	      5.12944744	      0.00000000	      0.00000000	     18.30193997	    -10.16835628	     -7.94620487	     55.72805321	     55.72805321	      4.87703421	      0.00000000	      0.00000000	    -19.65193301	      3.97074956	      4.49504000
      0.87500000	      7.97037280	     -2.00564044	      6.62034172	      0.90581087	      1.01214145	      0.13742784	     -7.36980402	      5.12409917	     -7.17520244	      8.02564704	      8.02564704	      5.34906803	      0.00000000	      0.00000000	     18.69516428	     -9.94670123	     -8.46707372	     53.78515500	     53.78515500	      4.69024237	      0.00000000	      0.00000000	    -19.71959332	      3.93855384	      4.62802322
      0.88333333	      7.93347134	     -1.90527289	      6.48163873	      0.91337403	      1.01212722	      0.13717937	     -8.02533663	      5.05487500	     -6.94425441	      7.67294505	      7.67294505	      5.53581677	      0.00000000	      0.00000000	     19.06673634	     -9.54913113	     -8.60180012	     51.67891449	     51.67891449	      4.41398051	      0.00000000	      0.00000000	    -19.76541328	      3.84415705	      4.75156066
